<svg width="1130" height="386" xmlns="http://www.w3.org/2000/svg" xmlns:xlink="http://www.w3.org/1999/xlink" overflow="hidden"><defs><filter id="fx0" x="-10%" y="-10%" width="120%" height="120%" filterUnits="userSpaceOnUse" primitiveUnits="userSpaceOnUse"><feComponentTransfer color-interpolation-filters="sRGB"><feFuncR type="discrete" tableValues="0 0"/><feFuncG type="discrete" tableValues="0 0"/><feFuncB type="discrete" tableValues="0 0"/><feFuncA type="linear" slope="0.4" intercept="0"/></feComponentTransfer><feGaussianBlur stdDeviation="6.11111 6.11111"/></filter><filter id="fx1" x="-10%" y="-10%" width="120%" height="120%" filterUnits="userSpaceOnUse" primitiveUnits="userSpaceOnUse"><feComponentTransfer color-interpolation-filters="sRGB"><feFuncR type="discrete" tableValues="0 0"/><feFuncG type="discrete" tableValues="0 0"/><feFuncB type="discrete" tableValues="0 0"/><feFuncA type="linear" slope="0.431373" intercept="0"/></feComponentTransfer><feGaussianBlur stdDeviation="2.77897 2.77897"/></filter><clipPath id="clip2"><rect x="1043" y="269" width="1130" height="386"/></clipPath><clipPath id="clip3"><rect x="8" y="15" width="337" height="330"/></clipPath><clipPath id="clip4"><rect x="0" y="0" width="370" height="370"/></clipPath><clipPath id="clip5"><rect x="19" y="19" width="331" height="331"/></clipPath><clipPath id="clip6"><rect x="19" y="19" width="331" height="331"/></clipPath><clipPath id="clip7"><rect x="19" y="19" width="331" height="331"/></clipPath><clipPath id="clip8"><rect x="1051" y="278" width="331" height="331"/></clipPath><clipPath id="clip9"><rect x="1051" y="278" width="331" height="331"/></clipPath><clipPath id="clip10"><rect x="1051" y="278" width="331" height="331"/></clipPath><clipPath id="clip11"><rect x="101" y="86" width="695" height="143"/></clipPath><clipPath id="clip12"><rect x="0" y="0" width="896" height="366"/></clipPath></defs><g clip-path="url(#clip2)" transform="translate(-1043 -269)"><g clip-path="url(#clip3)" filter="url(#fx0)" transform="translate(1042 268)"><g clip-path="url(#clip4)"><g clip-path="url(#clip5)"><g clip-path="url(#clip6)"><g clip-path="url(#clip7)"><path d="M87.4413 201.91C85.7225 202.942 83.66 204.317 81.9413 205.348 73.6913 211.535 68.1913 220.817 66.8163 231.129L60.6288 306.754 66.1288 308.473C67.8475 309.16 113.223 322.223 185.066 322.223 256.91 322.223 301.941 309.16 304.004 308.473L309.504 306.754 303.66 231.817 303.66 231.129C301.941 221.16 296.441 211.879 288.535 205.692 278.91 198.473 268.598 192.285 257.254 187.817 262.066 177.504 257.941 165.129 247.973 159.973 273.066 125.598 265.504 77.1291 231.129 52.0353 196.754 26.9416 148.285 34.5041 123.191 68.8791 103.254 96.0353 103.254 132.817 123.191 159.973 112.879 165.473 108.754 177.848 113.91 188.504 105.316 192.285 95.3475 197.098 87.4413 201.91ZM128.348 185.41C124.566 183.348 123.535 178.535 125.598 174.754 126.973 172.348 129.379 170.973 132.129 170.973 161.691 198.473 207.41 198.473 236.973 170.973 237.66 170.973 238.348 170.973 238.691 171.317 242.816 172.348 245.223 176.473 244.191 180.598 243.848 182.66 242.473 184.379 240.754 185.41 227.348 193.66 206.723 198.473 184.723 198.473 162.723 198.473 142.441 193.66 128.348 185.41L128.348 185.41ZM199.16 95.3478 209.816 98.7853C214.285 108.067 225.973 115.973 226.316 129.379L226.316 132.817C226.316 137.629 225.629 142.098 223.91 146.567L208.785 146.567C207.41 144.504 205.348 143.129 202.941 143.129L196.066 143.129C192.285 143.129 189.191 146.223 189.191 150.004 189.191 153.785 192.285 156.879 196.066 156.879L202.941 156.879C205.348 156.879 207.754 155.504 208.785 153.442L220.816 153.442C209.473 173.035 184.379 179.91 164.441 168.567 153.098 162.035 145.535 150.348 144.16 137.285 139.348 109.785 178.879 119.754 199.16 95.3478ZM184.723 50.6603C209.816 50.6603 232.504 65.4416 242.816 88.1291 229.066 77.8166 208.441 71.2853 184.723 71.2853 161.004 71.2853 140.379 77.8166 126.629 88.1291 136.941 65.4416 159.629 50.6603 184.723 50.6603ZM259.66 303.317 256.91 280.285C256.566 276.504 253.129 273.754 249.348 274.442 245.566 274.785 242.816 278.223 243.504 282.004L246.254 305.035C225.629 307.442 205.348 308.473 184.723 308.473 164.098 308.473 143.816 307.442 123.535 305.035L126.285 282.004C126.629 278.223 124.223 274.785 120.441 274.442 116.66 274.098 113.223 276.504 112.879 280.285L112.879 280.285 110.129 303.317C93.9725 300.91 81.9413 298.504 75.7538 296.785L80.91 233.192C81.5975 230.098 82.6288 226.66 84.3475 223.91L99.8163 236.973 113.223 221.16 100.504 210.16C108.41 205.348 116.316 201.567 124.91 198.129 140.723 206.723 162.723 211.879 185.754 211.879 209.129 211.879 231.129 206.723 246.941 197.785 255.535 200.879 263.441 205.004 271.348 209.817L258.285 221.16 271.691 236.973 287.16 223.91C288.879 226.66 289.91 229.754 290.598 233.192L295.754 296.442C287.848 298.504 276.16 300.91 259.66 303.317Z"/><path d="M44.4725 143.473C42.41 151.035 37.2538 157.223 30.035 160.66 36.91 164.098 42.41 170.285 44.4725 177.848 46.535 170.285 51.6913 164.098 58.91 160.66 51.6913 157.223 46.535 151.035 44.4725 143.473Z"/><path d="M212.223 229.41 157.223 229.41C149.66 229.41 143.473 235.598 143.473 243.16L143.473 270.66C143.473 278.223 149.66 284.41 157.223 284.41L212.223 284.41C219.785 284.41 225.973 278.223 225.973 270.66L225.973 243.16C225.973 235.598 219.785 229.41 212.223 229.41ZM157.223 270.66 157.223 243.16 212.223 243.16 212.223 270.66 157.223 270.66Z"/><path d="M80.91 50.6603C78.8475 58.2228 73.6913 64.4103 66.4725 67.8478 73.3475 71.2853 78.8475 77.4728 80.91 85.0353 82.9725 77.4728 88.1288 71.2853 95.3475 67.8478 88.4725 64.4103 82.9725 58.2228 80.91 50.6603Z"/><path d="M307.785 126.629C305.723 134.192 300.566 140.379 293.348 143.817 300.223 147.254 305.723 153.442 307.785 161.004 309.848 153.442 315.004 147.254 322.223 143.817 315.348 140.379 309.848 134.192 307.785 126.629Z"/></g></g></g></g></g><g clip-path="url(#clip8)"><g clip-path="url(#clip9)"><g clip-path="url(#clip10)"><path d="M1119.72 460.188C1118 461.219 1115.94 462.594 1114.22 463.625 1105.97 469.813 1100.47 479.094 1099.09 489.406L1092.91 565.031 1098.41 566.75C1100.12 567.438 1145.5 580.5 1217.34 580.5 1289.19 580.5 1334.22 567.438 1336.28 566.75L1341.78 565.031 1335.94 490.094 1335.94 489.406C1334.22 479.438 1328.72 470.156 1320.81 463.969 1311.19 456.75 1300.87 450.563 1289.53 446.094 1294.34 435.781 1290.22 423.406 1280.25 418.25 1305.34 383.875 1297.78 335.406 1263.41 310.313 1229.03 285.219 1180.56 292.781 1155.47 327.156 1135.53 354.313 1135.53 391.094 1155.47 418.25 1145.16 423.75 1141.03 436.125 1146.19 446.781 1137.59 450.563 1127.62 455.375 1119.72 460.188ZM1160.62 443.688C1156.84 441.625 1155.81 436.813 1157.87 433.031 1159.25 430.625 1161.66 429.25 1164.41 429.25 1193.97 456.75 1239.69 456.75 1269.25 429.25 1269.94 429.25 1270.62 429.25 1270.97 429.594 1275.09 430.625 1277.5 434.75 1276.47 438.875 1276.12 440.938 1274.75 442.656 1273.03 443.688 1259.62 451.938 1239 456.75 1217 456.75 1195 456.75 1174.72 451.938 1160.62 443.688L1160.62 443.688ZM1231.44 353.625 1242.09 357.063C1246.56 366.344 1258.25 374.25 1258.59 387.656L1258.59 391.094C1258.59 395.906 1257.91 400.375 1256.19 404.844L1241.06 404.844C1239.69 402.781 1237.62 401.406 1235.22 401.406L1228.34 401.406C1224.56 401.406 1221.47 404.5 1221.47 408.281 1221.47 412.063 1224.56 415.156 1228.34 415.156L1235.22 415.156C1237.62 415.156 1240.03 413.781 1241.06 411.719L1253.09 411.719C1241.75 431.313 1216.66 438.188 1196.72 426.844 1185.37 420.313 1177.81 408.625 1176.44 395.563 1171.62 368.063 1211.16 378.031 1231.44 353.625ZM1217 308.938C1242.09 308.938 1264.78 323.719 1275.09 346.406 1261.34 336.094 1240.72 329.563 1217 329.563 1193.28 329.563 1172.66 336.094 1158.91 346.406 1169.22 323.719 1191.91 308.938 1217 308.938ZM1291.94 561.594 1289.19 538.563C1288.84 534.781 1285.41 532.031 1281.62 532.719 1277.84 533.063 1275.09 536.5 1275.78 540.281L1278.53 563.313C1257.91 565.719 1237.62 566.75 1217 566.75 1196.37 566.75 1176.09 565.719 1155.81 563.313L1158.56 540.281C1158.91 536.5 1156.5 533.063 1152.72 532.719 1148.94 532.375 1145.5 534.781 1145.16 538.563L1145.16 538.563 1142.41 561.594C1126.25 559.188 1114.22 556.781 1108.03 555.063L1113.19 491.469C1113.87 488.375 1114.91 484.938 1116.62 482.188L1132.09 495.25 1145.5 479.438 1132.78 468.438C1140.69 463.625 1148.59 459.844 1157.19 456.406 1173 465 1195 470.156 1218.03 470.156 1241.41 470.156 1263.41 465 1279.22 456.063 1287.81 459.156 1295.72 463.281 1303.62 468.094L1290.56 479.438 1303.97 495.25 1319.44 482.188C1321.16 484.938 1322.19 488.031 1322.87 491.469L1328.03 554.719C1320.12 556.781 1308.44 559.188 1291.94 561.594Z"/><path d="M1076.75 401.75C1074.69 409.313 1069.53 415.5 1062.31 418.938 1069.19 422.375 1074.69 428.563 1076.75 436.125 1078.81 428.563 1083.97 422.375 1091.19 418.938 1083.97 415.5 1078.81 409.313 1076.75 401.75Z"/><path d="M1244.5 487.688 1189.5 487.688C1181.94 487.688 1175.75 493.875 1175.75 501.438L1175.75 528.938C1175.75 536.5 1181.94 542.688 1189.5 542.688L1244.5 542.688C1252.06 542.688 1258.25 536.5 1258.25 528.938L1258.25 501.438C1258.25 493.875 1252.06 487.688 1244.5 487.688ZM1189.5 528.938 1189.5 501.438 1244.5 501.438 1244.5 528.938 1189.5 528.938Z"/><path d="M1113.19 308.938C1111.12 316.5 1105.97 322.688 1098.75 326.125 1105.62 329.563 1111.12 335.75 1113.19 343.313 1115.25 335.75 1120.41 329.563 1127.62 326.125 1120.75 322.688 1115.25 316.5 1113.19 308.938Z"/><path d="M1340.06 384.906C1338 392.469 1332.84 398.656 1325.62 402.094 1332.5 405.531 1338 411.719 1340.06 419.281 1342.12 411.719 1347.28 405.531 1354.5 402.094 1347.62 398.656 1342.12 392.469 1340.06 384.906Z"/></g></g></g><g clip-path="url(#clip11)" filter="url(#fx1)" transform="translate(1278 290)"><g clip-path="url(#clip12)"><path d="M80.355 0 68.145 0 68.145-4.62C67.2856-3.05078 64.9211-1.66848 61.0513-0.473086 57.1815 0.722305 52.9461 1.32 48.345 1.32 40.3133 1.32 32.9317-0.647969 26.2002-4.58391 19.4687-8.51984 14.1066-13.8815 10.114-20.6688 6.12133-27.4562 4.125-34.8666 4.125-42.9 4.125-50.8612 6.1123-58.2205 10.0869-64.9778 14.0615-71.735 19.424-77.0872 26.1744-81.0343 32.9248-84.9814 40.315-86.955 48.345-86.955 56.3595-86.955 63.7149-84.9801 70.4112-81.0305 77.1074-77.0808 82.4188-71.7204 86.3453-64.9494 90.2717-58.1784 92.235-50.8286 92.235-42.9L92.235 0 80.025 0 80.025-42.9C80.025-48.62 78.6105-53.9163 75.7814-58.789 72.9523-63.6616 69.1015-67.5391 64.2288-70.4215 59.3562-73.3038 54.0616-74.745 48.345-74.745 42.613-74.745 37.3106-73.3043 32.438-70.4228 27.5653-67.5413 23.7183-63.6707 20.897-58.8109 18.0757-53.9511 16.665-48.6475 16.665-42.9 16.665-37.0786 18.0847-31.7234 20.9241-26.8344 23.7634-21.9454 27.6096-18.0658 32.4625-15.1955 37.3153-12.3252 42.6095-10.89 48.345-10.89 54.6047-10.89 60.3406-12.5838 65.5527-15.9715 70.7648-19.3591 75.6989-24.1553 80.355-30.36ZM48.51-10.56C42.4583-10.56 37.0043-11.9762 32.1479-14.8087 27.2916-17.6412 23.442-21.5239 20.5992-26.4567 17.7564-31.3895 16.335-36.8706 16.335-42.9 16.335-48.8606 17.7478-54.2914 20.5734-59.1925 23.3991-64.0935 27.2491-67.9658 32.1234-70.8095 36.9978-73.6532 42.46-75.075 48.51-75.075 54.4311-75.075 59.8305-73.6523 64.7084-70.8069 69.5862-67.9615 73.4134-64.0806 76.19-59.1641 78.9667-54.2476 80.355-48.8262 80.355-42.9 80.355-36.9033 78.9576-31.4312 76.163-26.4838 73.3683-21.5364 69.5419-17.6455 64.6839-14.8113 59.8258-11.9771 54.4345-10.56 48.51-10.56ZM48.51-22.77C54.0495-22.77 58.6519-24.6791 62.3171-28.4973 65.9824-32.3155 67.815-37.1164 67.815-42.9 67.815-48.5908 65.9862-53.341 62.3287-57.1506 58.6712-60.9602 54.065-62.865 48.51-62.865 42.912-62.865 38.24-60.9671 34.494-57.1712 30.748-53.3754 28.875-48.6183 28.875-42.9 28.875-37.0889 30.7519-32.2811 34.5056-28.4767 38.2594-24.6722 42.9275-22.77 48.51-22.77ZM147.583-27.39C147.583-29.0434 146.481-30.2835 144.276-31.1102 142.07-31.937 138.073-32.8419 132.285-33.825 125.81-34.925 120.317-36.1977 115.805-37.6432 111.294-39.0887 107.35-41.6178 103.973-45.2306 100.597-48.8434 98.9083-53.9516 98.9083-60.555 98.9083-65.6081 100.513-70.1482 103.723-74.1752 106.933-78.2023 111.244-81.339 116.657-83.5854 122.071-85.8318 128.089-86.955 134.713-86.955 144.983-86.955 153.435-84.4233 160.07-79.3598 166.706-74.2964 170.023-66.7631 170.023-56.76L157.978-56.76C157.978-62.92 155.897-67.65 151.734-70.95 147.571-74.25 141.898-75.9 134.713-75.9 130.191-75.9 126.151-75.1523 122.594-73.657 119.036-72.1617 116.289-70.2225 114.353-67.8395 112.416-65.4564 111.448-63.0283 111.448-60.555 111.448-56.5125 112.514-53.3758 114.645-51.1448 116.776-48.9139 119.482-47.3039 122.761-46.3147 126.041-45.3256 130.569-44.3773 136.348-43.4698 141.284-42.6293 145.333-41.7703 148.493-40.8929 151.654-40.0155 154.383-38.4905 156.679-36.318 158.975-34.1455 160.123-31.1695 160.123-27.39 160.123-21.7491 157.844-17.3688 153.285-14.2493 148.726-11.1298 142.865-9.57 135.703-9.57 128.103-9.57 121.885-11.2114 117.051-14.4942 112.216-17.777 109.798-22.9006 109.798-29.865L121.843-29.865C121.843-26.7644 123.097-24.5042 125.605-23.0845 128.112-21.6648 131.479-20.955 135.703-20.955 139.638-20.955 142.601-21.5806 144.594-22.8319 146.587-24.0831 147.583-25.6025 147.583-27.39ZM172.333-25.245C172.435-16.9555 169.025-10.4556 162.105-5.74535 155.184-1.03512 146.219 1.32 135.208 1.32 128.589 1.32 122.475 0.203672 116.864-2.02898 111.253-4.26164 106.72-7.63168 103.265-12.1391 99.8107-16.6465 98.0833-22.5552 98.0833-29.865L110.128-29.865C110.128-23.0691 112.472-18.0151 117.16-14.703 121.848-11.391 128.084-9.735 135.868-9.735 143.622-9.735 149.547-11.3038 153.646-14.4414 157.744-17.5789 159.793-21.8952 159.793-27.39 159.793-30.8687 158.792-33.6097 156.789-35.6129 154.785-37.6161 152.192-39.0955 149.008-40.0512 145.824-41.0068 141.561-41.965 136.219-42.9258 130.709-43.9381 126.354-44.9015 123.154-45.8159 119.955-46.7302 117.149-48.3622 114.737-50.7117 112.324-53.0612 111.118-56.2873 111.118-60.39 111.118-63.2637 112.184-65.8883 114.316-68.2636 116.449-70.6389 119.31-72.533 122.9-73.9458 126.491-75.3586 130.373-76.065 134.548-76.065 141.394-76.065 147.066-74.476 151.563-71.298 156.06-68.1201 158.308-63.2741 158.308-56.76L146.263-56.76C146.263-59.522 145.113-61.56 142.814-62.874 140.514-64.188 137.704-64.845 134.383-64.845 131.174-64.845 128.585-64.249 126.614-63.0571 124.644-61.8651 123.658-60.4811 123.658-58.905 123.658-57.5627 124.719-56.4764 126.841-55.6462 128.963-54.8161 132.718-53.9696 138.106-53.1068 144.715-51.9879 150.296-50.7169 154.85-49.2937 159.404-47.8706 163.456-45.3539 167.007-41.7437 170.558-38.1335 172.333-32.6339 172.333-25.245ZM174.419-85.305 174.419-73.59 199.169-73.59 199.169-118.635 186.959-118.635 186.959-85.305ZM226.229-73.59 226.229-85.305 211.049-85.305 211.049-118.635 198.839-118.635 198.839-73.59ZM226.229-11.385C215.6-11.385 208.433-14.0353 204.727-19.3359 201.022-24.6366 199.169-32.7662 199.169-43.725L199.169-73.755 174.419-73.755 174.419-62.04 186.959-62.04 186.959-40.59C186.959-26.8022 190.33-16.5077 197.073-9.70664 203.815-2.90555 213.534 0.495 226.229 0.495ZM226.229-23.1C220.382-23.1 216.39-24.4355 214.253-27.1064 212.117-29.7773 211.049-34.2719 211.049-40.59L211.049-62.04 226.229-62.04 226.229-73.755 198.839-73.755 198.839-43.725C198.839-32.2145 200.817-23.9194 204.775-18.8396 208.732-13.7599 215.884-11.22 226.229-11.22ZM272.571-85.965C259.178-85.965 249.285-82.3651 242.891-75.1652 236.498-67.9654 233.301-57.9253 233.301-45.045L233.301 0 245.511 0 245.511-45.045C245.511-64.075 254.531-73.59 272.571-73.59ZM272.571-74.25C263.004-74.25 256.048-71.7535 251.701-66.7605 247.354-61.7676 245.181-54.5291 245.181-45.045L245.181 0 257.391 0 257.391-45.045C257.391-50.9592 258.404-55.2428 260.429-57.8957 262.455-60.5485 266.502-61.875 272.571-61.875ZM320.48 1.32C312.45 1.32 305.041-0.647969 298.253-4.58391 291.465-8.51984 286.102-13.8828 282.166-20.6727 278.229-27.4626 276.26-34.8717 276.26-42.9 276.26-50.8578 278.22-58.2162 282.139-64.9752 286.057-71.7342 291.421-77.0872 298.229-81.0343 305.037-84.9814 312.454-86.955 320.48-86.955 328.49-86.955 335.898-84.9814 342.705-81.0343 349.512-77.0872 354.88-71.7269 358.808-64.9533 362.736-58.1797 364.7-50.8286 364.7-42.9 364.7-34.8992 362.728-27.4974 358.784-20.6946 354.839-13.8918 349.473-8.52199 342.685-4.5852 335.896-0.648399 328.495 1.32 320.48 1.32ZM320.48-10.89C326.199-10.89 331.485-12.3252 336.338-15.1955 341.192-18.0658 345.043-21.9527 347.89-26.8563 350.737-31.7599 352.16-37.1078 352.16-42.9 352.16-48.62 350.746-53.9163 347.917-58.789 345.088-63.6616 341.237-67.5391 336.364-70.4215 331.492-73.3038 326.197-74.745 320.48-74.745 314.748-74.745 309.446-73.3043 304.573-70.4228 299.701-67.5413 295.854-63.6707 293.032-58.8109 290.211-53.9511 288.8-48.6475 288.8-42.9 288.8-37.0786 290.22-31.7234 293.059-26.8344 295.899-21.9454 299.745-18.0658 304.598-15.1955 309.451-12.3252 314.745-10.89 320.48-10.89ZM320.645-10.56C314.594-10.56 309.14-11.9762 304.283-14.8087 299.427-17.6412 295.577-21.5239 292.735-26.4567 289.892-31.3895 288.47-36.8706 288.47-42.9 288.47-48.8606 289.883-54.2914 292.709-59.1925 295.534-64.0935 299.384-67.9658 304.259-70.8095 309.133-73.6532 314.595-75.075 320.645-75.075 326.566-75.075 331.966-73.6523 336.844-70.8069 341.722-67.9615 345.549-64.0806 348.325-59.1641 351.102-54.2476 352.49-48.8262 352.49-42.9 352.49-36.9033 351.093-31.4312 348.298-26.4838 345.504-21.5364 341.677-17.6455 336.819-14.8113 331.961-11.9771 326.57-10.56 320.645-10.56ZM320.645-22.77C326.185-22.77 330.787-24.6791 334.453-28.4973 338.118-32.3155 339.95-37.1164 339.95-42.9 339.95-48.5908 338.122-53.341 334.464-57.1506 330.807-60.9602 326.2-62.865 320.645-62.865 315.047-62.865 310.375-60.9671 306.629-57.1712 302.883-53.3754 301.01-48.6183 301.01-42.9 301.01-37.0889 302.887-32.2811 306.641-28.4767 310.395-24.6722 315.063-22.77 320.645-22.77ZM433.501-45.045C433.501-54.9605 431.364-62.3893 427.092-67.3316 422.819-72.2739 416.485-74.745 408.091-74.745 399.679-74.745 393.341-72.279 389.077-67.3471 384.813-62.4151 382.681-54.9811 382.681-45.045L382.681 0 370.471 0 370.471-45.045C370.471-58.8414 373.863-69.2755 380.648-76.3473 387.433-83.4191 396.58-86.955 408.091-86.955 419.584-86.955 428.727-83.4144 435.521-76.3331 442.314-69.2519 445.711-58.8225 445.711-45.045L445.711 0 433.501 0ZM421.621-45.045C421.621-51.2686 420.548-55.7945 418.403-58.6227 416.258-61.4509 412.821-62.865 408.091-62.865 403.344-62.865 399.902-61.4565 397.765-58.6395 395.629-55.8224 394.561-51.2909 394.561-45.045L394.561 0 382.351 0 382.351-45.045C382.351-54.615 384.523-62.0125 388.868-67.2375 393.213-72.4625 399.621-75.075 408.091-75.075 416.544-75.075 422.947-72.4569 427.3-67.2207 431.654-61.9846 433.831-54.5927 433.831-45.045L433.831 0 421.621 0ZM527.803 0 515.593 0 515.593-4.62C514.734-3.05078 512.369-1.66848 508.499-0.473086 504.629 0.722305 500.394 1.32 495.793 1.32 487.761 1.32 480.38-0.647969 473.648-4.58391 466.917-8.51984 461.555-13.8815 457.562-20.6688 453.569-27.4562 451.573-34.8666 451.573-42.9 451.573-50.8612 453.56-58.2205 457.535-64.9778 461.509-71.735 466.872-77.0872 473.622-81.0343 480.373-84.9814 487.763-86.955 495.793-86.955 503.807-86.955 511.163-84.9801 517.859-81.0305 524.555-77.0808 529.867-71.7204 533.793-64.9494 537.72-58.1784 539.683-50.8286 539.683-42.9L539.683 0 527.473 0 527.473-42.9C527.473-48.62 526.058-53.9163 523.229-58.789 520.4-63.6616 516.549-67.5391 511.677-70.4215 506.804-73.3038 501.509-74.745 495.793-74.745 490.061-74.745 484.758-73.3043 479.886-70.4228 475.013-67.5413 471.166-63.6707 468.345-58.8109 465.524-53.9511 464.113-48.6475 464.113-42.9 464.113-37.0786 465.533-31.7234 468.372-26.8344 471.211-21.9454 475.057-18.0658 479.91-15.1955 484.763-12.3252 490.057-10.89 495.793-10.89 502.053-10.89 507.788-12.5838 513.001-15.9715 518.213-19.3591 523.147-24.1553 527.803-30.36ZM495.958-10.56C489.906-10.56 484.452-11.9762 479.596-14.8087 474.739-17.6412 470.89-21.5239 468.047-26.4567 465.204-31.3895 463.783-36.8706 463.783-42.9 463.783-48.8606 465.196-54.2914 468.021-59.1925 470.847-64.0935 474.697-67.9658 479.571-70.8095 484.446-73.6532 489.908-75.075 495.958-75.075 501.879-75.075 507.278-73.6523 512.156-70.8069 517.034-67.9615 520.861-64.0806 523.638-59.1641 526.415-54.2476 527.803-48.8262 527.803-42.9 527.803-36.9033 526.406-31.4312 523.611-26.4838 520.816-21.5364 516.99-17.6455 512.132-14.8113 507.274-11.9771 501.882-10.56 495.958-10.56ZM495.958-22.77C501.497-22.77 506.1-24.6791 509.765-28.4973 513.43-32.3155 515.263-37.1164 515.263-42.9 515.263-48.5908 513.434-53.341 509.777-57.1506 506.119-60.9602 501.513-62.865 495.958-62.865 490.36-62.865 485.688-60.9671 481.942-57.1712 478.196-53.3754 476.323-48.6183 476.323-42.9 476.323-37.0889 478.2-32.2811 481.953-28.4767 485.707-24.6722 490.375-22.77 495.958-22.77ZM609.386-85.635 621.596-85.635 621.596-40.755C621.596-26.8847 618.196-16.4046 611.395-9.31476 604.593-2.22492 595.454 1.32 583.976 1.32 572.481 1.32 563.337-2.2202 556.545-9.30059 549.752-16.381 546.356-26.8658 546.356-40.755L546.356-85.635 558.566-85.635 558.566-40.755C558.566-30.7312 560.703-23.2478 564.977-18.3047 569.25-13.3616 575.583-10.89 583.976-10.89 592.352-10.89 598.68-13.3663 602.963-18.3189 607.245-23.2714 609.386-30.7502 609.386-40.755ZM597.506-85.635 609.716-85.635 609.716-40.755C609.716-31.1197 607.535-23.6784 603.172-18.431 598.809-13.1837 592.41-10.56 583.976-10.56 575.525-10.56 569.122-13.1785 564.768-18.4155 560.413-23.6526 558.236-31.0991 558.236-40.755L558.236-85.635 570.446-85.635 570.446-40.755C570.446-34.4248 571.52-29.8448 573.666-27.0149 575.813-24.185 579.25-22.77 583.976-22.77 588.686-22.77 592.118-24.1905 594.273-27.0316 596.428-29.8727 597.506-34.4472 597.506-40.755ZM624.158-85.305 624.158-73.59 648.908-73.59 648.908-118.635 636.698-118.635 636.698-85.305ZM675.968-73.59 675.968-85.305 660.788-85.305 660.788-118.635 648.578-118.635 648.578-73.59ZM675.968-11.385C665.339-11.385 658.172-14.0353 654.467-19.3359 650.761-24.6366 648.908-32.7662 648.908-43.725L648.908-73.755 624.158-73.755 624.158-62.04 636.698-62.04 636.698-40.59C636.698-26.8022 640.07-16.5077 646.812-9.70664 653.555-2.90555 663.274 0.495 675.968 0.495ZM675.968-23.1C670.121-23.1 666.129-24.4355 663.993-27.1064 661.856-29.7773 660.788-34.2719 660.788-40.59L660.788-62.04 675.968-62.04 675.968-73.755 648.578-73.755 648.578-43.725C648.578-32.2145 650.557-23.9194 654.514-18.8396 658.472-13.7599 665.623-11.22 675.968-11.22Z" transform="matrix(1 0 0 1 109.406 216)"/></g></g><text font-family="Nordique Inline,Nordique Inline_MSFontService,sans-serif" font-weight="700" font-size="165" transform="matrix(1 0 0 1 1381.51 500)">astronaut</text></g></svg>