<svg width="1190" height="483" xmlns="http://www.w3.org/2000/svg" xmlns:xlink="http://www.w3.org/1999/xlink" overflow="hidden"><defs><filter id="fx0" x="-10%" y="-10%" width="120%" height="120%" filterUnits="userSpaceOnUse" primitiveUnits="userSpaceOnUse"><feComponentTransfer color-interpolation-filters="sRGB"><feFuncR type="discrete" tableValues="0 0"/><feFuncG type="discrete" tableValues="0 0"/><feFuncB type="discrete" tableValues="0 0"/><feFuncA type="linear" slope="0.431373" intercept="0"/></feComponentTransfer><feGaussianBlur stdDeviation="3.36557 3.36557"/></filter><clipPath id="clip1"><rect x="1009" y="667" width="1190" height="483"/></clipPath><clipPath id="clip2"><rect x="134" y="114" width="928" height="190"/></clipPath><clipPath id="clip3"><rect x="0" y="0" width="1192" height="486"/></clipPath></defs><g clip-path="url(#clip1)" transform="translate(-1009 -667)"><g clip-path="url(#clip2)" filter="url(#fx0)" transform="translate(1008 666)"><g clip-path="url(#clip3)"><path d="M107.14 0 90.86 0 90.86-6.16C89.7142-4.06771 86.5614-2.22464 81.4017-0.630781 76.242 0.963073 70.5948 1.76 64.46 1.76 53.751 1.76 43.9089-0.863958 34.9336-6.11187 25.9583-11.3598 18.8089-18.5086 13.4853-27.5584 8.16177-36.6082 5.5-46.4887 5.5-57.2 5.5-67.815 8.14974-77.6273 13.4492-86.637 18.7487-95.6467 25.8987-102.783 34.8992-108.046 43.8997-113.309 53.7533-115.94 64.46-115.94 75.146-115.94 84.9532-113.307 93.8816-108.041 102.81-102.774 109.892-95.6272 115.127-86.5992 120.362-77.5712 122.98-67.7715 122.98-57.2L122.98 0 106.7 0 106.7-57.2C106.7-64.8267 104.814-71.8884 101.042-78.3853 97.2698-84.8822 92.1353-90.0522 85.6384-93.8953 79.1416-97.7384 72.0821-99.66 64.46-99.66 56.8173-99.66 49.7475-97.739 43.2506-93.897 36.7537-90.055 31.6244-84.8942 27.8627-78.4145 24.1009-71.9348 22.22-64.8633 22.22-57.2 22.22-49.4381 24.1129-42.2979 27.8987-35.7792 31.6846-29.2606 36.8128-24.0877 43.2833-20.2606 49.7538-16.4335 56.8127-14.52 64.46-14.52 72.8062-14.52 80.4541-16.7784 87.4036-21.2953 94.3531-25.8122 100.932-32.2071 107.14-40.48ZM64.68-14.08C56.611-14.08 49.339-15.9683 42.8639-19.745 36.3888-23.5217 31.256-28.6985 27.4656-35.2756 23.6752-41.8527 21.78-49.1608 21.78-57.2 21.78-65.1475 23.6637-72.3886 27.4312-78.9233 31.1987-85.458 36.3321-90.6211 42.8312-94.4127 49.3304-98.2042 56.6133-100.1 64.68-100.1 72.5748-100.1 79.774-98.2031 86.2778-94.4092 92.7816-90.6154 97.8845-85.4408 101.587-78.8855 105.289-72.3302 107.14-65.1017 107.14-57.2 107.14-49.2044 105.277-41.9083 101.551-35.3117 97.8244-28.7152 92.7225-23.5274 86.2451-19.7484 79.7678-15.9695 72.5794-14.08 64.68-14.08ZM64.68-30.36C72.066-30.36 78.2025-32.9055 83.0895-37.9964 87.9765-43.0873 90.42-49.4885 90.42-57.2 90.42-64.7877 87.9817-71.1213 83.105-76.2008 78.2283-81.2803 72.0867-83.82 64.68-83.82 57.216-83.82 50.9867-81.2894 45.992-76.2283 40.9973-71.1671 38.5-64.8244 38.5-57.2 38.5-49.4519 41.0025-43.0415 46.0075-37.9689 51.0125-32.8963 57.2367-30.36 64.68-30.36ZM196.969-36.52C196.969-38.7246 195.499-40.378 192.558-41.4803 189.618-42.5826 184.289-43.7892 176.571-45.1 167.938-46.5667 160.614-48.2636 154.598-50.1909 148.582-52.1182 143.324-55.4904 138.822-60.3075 134.32-65.1246 132.069-71.9354 132.069-80.74 132.069-87.4775 134.209-93.5309 138.488-98.9003 142.768-104.27 148.517-108.452 155.734-111.447 162.952-114.442 170.977-115.94 179.809-115.94 193.501-115.94 204.771-112.564 213.618-105.813 222.465-99.0619 226.889-89.0175 226.889-75.68L210.829-75.68C210.829-83.8933 208.054-90.2 202.503-94.6 196.953-99 189.388-101.2 179.809-101.2 173.779-101.2 168.393-100.203 163.649-98.2094 158.905-96.2156 155.243-93.63 152.661-90.4527 150.08-87.2753 148.789-84.0377 148.789-80.74 148.789-75.35 150.21-71.1677 153.051-68.1931 155.893-65.2185 159.5-63.0718 163.872-61.753 168.245-60.4341 174.284-59.1697 181.988-57.9597 188.57-56.8391 193.968-55.6938 198.182-54.5239 202.397-53.354 206.035-51.3207 209.096-48.4241 212.158-45.5274 213.689-41.5594 213.689-36.52 213.689-28.9987 210.649-23.1584 204.571-18.9991 198.492-14.8397 190.678-12.76 181.129-12.76 170.995-12.76 162.705-14.9485 156.258-19.3256 149.812-23.7027 146.589-30.5342 146.589-39.82L162.649-39.82C162.649-35.6858 164.32-32.6723 167.664-30.7794 171.008-28.8865 175.496-27.94 181.129-27.94 186.374-27.94 190.326-28.7742 192.983-30.4425 195.64-32.1108 196.969-34.1367 196.969-36.52ZM229.969-33.66C230.104-22.6073 225.558-13.9408 216.33-7.66047 207.103-1.38016 195.149 1.76 180.469 1.76 171.644 1.76 163.49 0.271562 156.009-2.70531 148.528-5.68219 142.484-10.1756 137.878-16.1855 133.272-22.1954 130.969-30.0735 130.969-39.82L147.029-39.82C147.029-30.7587 150.154-24.0201 156.405-19.6041 162.655-15.188 170.97-12.98 181.349-12.98 191.686-12.98 199.588-15.0717 205.052-19.2552 210.516-23.4386 213.249-29.1935 213.249-36.52 213.249-41.1583 211.913-44.813 209.242-47.4839 206.571-50.1548 203.113-52.1274 198.868-53.4016 194.623-54.6757 188.939-55.9533 181.816-57.2344 174.469-58.5842 168.663-59.8686 164.397-61.0878 160.131-62.307 156.39-64.4829 153.173-67.6156 149.957-70.7483 148.349-75.0498 148.349-80.52 148.349-84.3517 149.77-87.851 152.613-91.0181 155.456-94.1852 159.271-96.7106 164.058-98.5944 168.845-100.478 174.022-101.42 179.589-101.42 188.716-101.42 196.278-99.3013 202.275-95.0641 208.271-90.8268 211.269-84.3654 211.269-75.68L195.209-75.68C195.209-79.3627 193.676-82.08 190.609-83.832 187.543-85.584 183.796-86.46 179.369-86.46 175.09-86.46 171.637-85.6654 169.01-84.0761 166.382-82.4868 165.069-80.6414 165.069-78.54 165.069-76.7502 166.483-75.3019 169.312-74.195 172.141-73.0881 177.148-71.9595 184.332-70.8091 193.144-69.3172 200.586-67.6225 206.657-65.725 212.729-63.8275 218.132-60.4719 222.867-55.6583 227.601-50.8446 229.969-43.5119 229.969-33.66ZM232.558-113.74 232.558-98.12 265.558-98.12 265.558-158.18 249.278-158.18 249.278-113.74ZM301.638-98.12 301.638-113.74 281.398-113.74 281.398-158.18 265.118-158.18 265.118-98.12ZM301.638-15.18C287.467-15.18 277.91-18.7137 272.97-25.7812 268.029-32.8487 265.558-43.6883 265.558-58.3L265.558-98.34 232.558-98.34 232.558-82.72 249.278-82.72 249.278-54.12C249.278-35.7362 253.773-22.0103 262.764-12.9422 271.754-3.87406 284.712 0.66 301.638 0.66ZM301.638-30.8C293.842-30.8 288.52-32.5806 285.671-36.1419 282.823-39.7031 281.398-45.6958 281.398-54.12L281.398-82.72 301.638-82.72 301.638-98.34 265.118-98.34 265.118-58.3C265.118-42.9527 267.757-31.8925 273.033-25.1195 278.31-18.3465 287.845-14.96 301.638-14.96ZM363.619-114.62C345.762-114.62 332.571-109.82 324.046-100.22 315.521-90.6205 311.259-77.2337 311.259-60.06L311.259 0 327.539 0 327.539-60.06C327.539-85.4333 339.565-98.12 363.619-98.12ZM363.619-99C350.863-99 341.588-95.6713 335.792-89.0141 329.997-82.3568 327.099-72.7054 327.099-60.06L327.099 0 343.379 0 343.379-60.06C343.379-67.9456 344.729-73.657 347.43-77.1942 350.131-80.7314 355.527-82.5 363.619-82.5ZM427.116 1.76C416.41 1.76 406.531-0.863958 397.48-6.11187 388.429-11.3598 381.279-18.5104 376.03-27.5636 370.781-36.6168 368.156-46.4956 368.156-57.2 368.156-67.8104 370.769-77.6216 375.994-86.6336 381.219-95.6456 388.37-102.783 397.447-108.046 406.524-113.309 416.414-115.94 427.116-115.94 437.795-115.94 447.673-113.309 456.749-108.046 465.825-102.783 472.982-95.6358 478.22-86.6044 483.457-77.5729 486.076-67.7715 486.076-57.2 486.076-46.5323 483.447-36.6632 478.187-27.5928 472.928-18.5224 465.773-11.3627 456.722-6.11359 447.671-0.864531 437.802 1.76 427.116 1.76ZM427.116-14.52C434.741-14.52 441.789-16.4335 448.26-20.2606 454.732-24.0877 459.866-29.2703 463.662-35.8084 467.458-42.3466 469.356-49.4771 469.356-57.2 469.356-64.8267 467.47-71.8884 463.698-78.3853 459.926-84.8822 454.792-90.0522 448.295-93.8953 441.798-97.7384 434.738-99.66 427.116-99.66 419.473-99.66 412.404-97.739 405.907-93.897 399.41-90.055 394.281-84.8942 390.519-78.4145 386.757-71.9348 384.876-64.8633 384.876-57.2 384.876-49.4381 386.769-42.2979 390.555-35.7792 394.341-29.2606 399.469-24.0877 405.94-20.2606 412.41-16.4335 419.469-14.52 427.116-14.52ZM427.336-14.08C419.267-14.08 411.995-15.9683 405.52-19.745 399.045-23.5217 393.912-28.6985 390.122-35.2756 386.331-41.8527 384.436-49.1608 384.436-57.2 384.436-65.1475 386.32-72.3886 390.087-78.9233 393.855-85.458 398.988-90.6211 405.487-94.4127 411.987-98.2042 419.27-100.1 427.336-100.1 435.231-100.1 442.43-98.2031 448.934-94.4092 455.438-90.6154 460.541-85.4408 464.243-78.8855 467.945-72.3302 469.796-65.1017 469.796-57.2 469.796-49.2044 467.933-41.9083 464.207-35.3117 460.481-28.7152 455.379-23.5274 448.901-19.7484 442.424-15.9695 435.236-14.08 427.336-14.08ZM427.336-30.36C434.722-30.36 440.859-32.9055 445.746-37.9964 450.633-43.0873 453.076-49.4885 453.076-57.2 453.076-64.7877 450.638-71.1213 445.761-76.2008 440.885-81.2803 434.743-83.82 427.336-83.82 419.872-83.82 413.643-81.2894 408.648-76.2283 403.654-71.1671 401.156-64.8244 401.156-57.2 401.156-49.4519 403.659-43.0415 408.664-37.9689 413.669-32.8963 419.893-30.36 427.336-30.36ZM578.192-60.06C578.192-73.2806 575.344-83.1858 569.646-89.7755 563.949-96.3652 555.505-99.66 544.312-99.66 533.097-99.66 524.646-96.372 518.961-89.7961 513.275-83.2202 510.432-73.3081 510.432-60.06L510.432 0 494.152 0 494.152-60.06C494.152-78.4552 498.675-92.3673 507.722-101.796 516.768-111.225 528.965-115.94 544.312-115.94 559.636-115.94 571.828-111.219 580.885-101.777 589.943-92.3358 594.472-78.43 594.472-60.06L594.472 0 578.192 0ZM562.352-60.06C562.352-68.3581 560.922-74.3926 558.062-78.1636 555.202-81.9345 550.619-83.82 544.312-83.82 537.982-83.82 533.393-81.942 530.545-78.1859 527.696-74.4299 526.272-68.3879 526.272-60.06L526.272 0 509.992 0 509.992-60.06C509.992-72.82 512.889-82.6833 518.682-89.65 524.475-96.6167 533.019-100.1 544.312-100.1 555.582-100.1 564.12-96.6092 569.925-89.6276 575.73-82.6461 578.632-72.7902 578.632-60.06L578.632 0 562.352 0ZM704.119 0 687.839 0 687.839-6.16C686.693-4.06771 683.541-2.22464 678.381-0.630781 673.221 0.963073 667.574 1.76 661.439 1.76 650.73 1.76 640.888-0.863958 631.913-6.11187 622.937-11.3598 615.788-18.5086 610.464-27.5584 605.141-36.6082 602.479-46.4887 602.479-57.2 602.479-67.815 605.129-77.6273 610.428-86.637 615.728-95.6467 622.878-102.783 631.878-108.046 640.879-113.309 650.732-115.94 661.439-115.94 672.125-115.94 681.932-113.307 690.861-108.041 699.789-102.774 706.871-95.6272 712.106-86.5992 717.341-77.5712 719.959-67.7715 719.959-57.2L719.959 0 703.679 0 703.679-57.2C703.679-64.8267 701.793-71.8884 698.021-78.3853 694.249-84.8822 689.114-90.0522 682.618-93.8953 676.121-97.7384 669.061-99.66 661.439-99.66 653.796-99.66 646.727-97.739 640.23-93.897 633.733-90.055 628.604-84.8942 624.842-78.4145 621.08-71.9348 619.199-64.8633 619.199-57.2 619.199-49.4381 621.092-42.2979 624.878-35.7792 628.664-29.2606 633.792-24.0877 640.262-20.2606 646.733-16.4335 653.792-14.52 661.439-14.52 669.785-14.52 677.433-16.7784 684.383-21.2953 691.332-25.8122 697.911-32.2071 704.119-40.48ZM661.659-14.08C653.59-14.08 646.318-15.9683 639.843-19.745 633.368-23.5217 628.235-28.6985 624.445-35.2756 620.654-41.8527 618.759-49.1608 618.759-57.2 618.759-65.1475 620.643-72.3886 624.41-78.9233 628.178-85.458 633.311-90.6211 639.81-94.4127 646.31-98.2042 653.592-100.1 661.659-100.1 669.554-100.1 676.753-98.2031 683.257-94.4092 689.761-90.6154 694.864-85.4408 698.566-78.8855 702.268-72.3302 704.119-65.1017 704.119-57.2 704.119-49.2044 702.256-41.9083 698.53-35.3117 694.803-28.7152 689.702-23.5274 683.224-19.7484 676.747-15.9695 669.558-14.08 661.659-14.08ZM661.659-30.36C669.045-30.36 675.182-32.9055 680.069-37.9964 684.956-43.0873 687.399-49.4885 687.399-57.2 687.399-64.7877 684.961-71.1213 680.084-76.2008 675.207-81.2803 669.066-83.82 661.659-83.82 654.195-83.82 647.966-81.2894 642.971-76.2283 637.976-71.1671 635.479-64.8244 635.479-57.2 635.479-49.4519 637.982-43.0415 642.987-37.9689 647.992-32.8963 654.216-30.36 661.659-30.36ZM813.088-114.18 829.368-114.18 829.368-54.34C829.368-35.8462 824.834-21.8728 815.766-12.4197 806.698-2.96656 794.512 1.76 779.208 1.76 763.881 1.76 751.69-2.96026 742.633-12.4008 733.576-21.8413 729.048-35.821 729.048-54.34L729.048-114.18 745.328-114.18 745.328-54.34C745.328-40.975 748.177-30.9971 753.875-24.4062 759.573-17.8154 768.018-14.52 779.208-14.52 790.375-14.52 798.814-17.8217 804.523-24.4252 810.233-31.0286 813.088-41.0002 813.088-54.34ZM797.248-114.18 813.528-114.18 813.528-54.34C813.528-41.4929 810.619-31.5711 804.802-24.5747 798.984-17.5782 790.453-14.08 779.208-14.08 767.94-14.08 759.403-17.5714 753.597-24.5541 747.791-31.5368 744.888-41.4654 744.888-54.34L744.888-114.18 761.168-114.18 761.168-54.34C761.168-45.8998 762.599-39.7931 765.461-36.0198 768.324-32.2466 772.906-30.36 779.208-30.36 785.487-30.36 790.063-32.2541 792.937-36.0422 795.811-39.8303 797.248-45.9296 797.248-54.34ZM832.975-113.74 832.975-98.12 865.975-98.12 865.975-158.18 849.695-158.18 849.695-113.74ZM902.055-98.12 902.055-113.74 881.815-113.74 881.815-158.18 865.535-158.18 865.535-98.12ZM902.055-15.18C887.883-15.18 878.327-18.7137 873.386-25.7812 868.445-32.8487 865.975-43.6883 865.975-58.3L865.975-98.34 832.975-98.34 832.975-82.72 849.695-82.72 849.695-54.12C849.695-35.7362 854.19-22.0103 863.18-12.9422 872.17-3.87406 885.129 0.66 902.055 0.66ZM902.055-30.8C894.259-30.8 888.936-32.5806 886.088-36.1419 883.239-39.7031 881.815-45.6958 881.815-54.12L881.815-82.72 902.055-82.72 902.055-98.34 865.535-98.34 865.535-58.3C865.535-42.9527 868.173-31.8925 873.45-25.1195 878.726-18.3465 888.261-14.96 902.055-14.96Z" transform="matrix(1 0 0 1 143.592 287)"/></g></g><text font-family="Nordique Inline,Nordique Inline_MSFontService,sans-serif" font-weight="700" font-size="220" transform="matrix(1 0 0 1 1144.45 946)">astronaut</text></g></svg>