<svg xmlns="http://www.w3.org/2000/svg" xmlns:xlink="http://www.w3.org/1999/xlink" viewBox="0 0 287.14 533.6"><defs><style>.cls-1,.cls-10,.cls-11,.cls-12,.cls-13,.cls-14,.cls-15,.cls-16,.cls-17,.cls-18,.cls-2,.cls-5,.cls-6,.cls-7,.cls-8,.cls-9{fill:none;}.cls-10,.cls-11,.cls-12,.cls-13,.cls-14,.cls-15,.cls-16,.cls-17,.cls-18,.cls-2,.cls-5,.cls-6,.cls-7,.cls-8,.cls-9{stroke:#434343;}.cls-2{stroke-width:1.44px;}.cls-3{fill:#434343;}.cls-4{clip-path:url(#clip-path);}.cls-10,.cls-11,.cls-12,.cls-13,.cls-14,.cls-15,.cls-16,.cls-17,.cls-18,.cls-5,.cls-6,.cls-7,.cls-8,.cls-9{stroke-miterlimit:10;}.cls-5{stroke-width:0.7px;}.cls-6{stroke-width:0.69px;}.cls-7{stroke-width:0.67px;}.cls-8{stroke-width:0.66px;}.cls-9{stroke-width:0.64px;}.cls-10{stroke-width:0.62px;}.cls-11{stroke-width:0.61px;}.cls-12{stroke-width:0.59px;}.cls-13{stroke-width:0.58px;}.cls-14{stroke-width:0.56px;}.cls-15{stroke-width:0.55px;}.cls-16{stroke-width:0.53px;}.cls-17{stroke-width:0.51px;}.cls-18{stroke-width:0.5px;}.cls-19{fill:url(#_10_ppp_20_2);}.cls-20{fill:url(#_10_lpp_20_2);}</style><clipPath id="clip-path"><rect class="cls-1" x="143.77" y="243.59" width="145.72" height="147.24" transform="translate(-100.58 533.84) rotate(-90)"/></clipPath><pattern id="_10_ppp_20_2" data-name="10 ppp 20% 2" width="28.8" height="28.8" patternTransform="matrix(-0.8, -0.8, -0.8, 0.8, -37.75, -54.79)" patternUnits="userSpaceOnUse" viewBox="0 0 28.8 28.8"><rect class="cls-1" width="28.8" height="28.8"/><path class="cls-3" d="M28.8,30.24a1.44,1.44,0,1,0-1.44-1.44A1.44,1.44,0,0,0,28.8,30.24Z"/><path class="cls-3" d="M14.4,30.24A1.44,1.44,0,1,0,13,28.8,1.44,1.44,0,0,0,14.4,30.24Z"/><path class="cls-3" d="M28.8,15.84a1.44,1.44,0,1,0-1.44-1.44A1.44,1.44,0,0,0,28.8,15.84Z"/><path class="cls-3" d="M14.4,15.84A1.44,1.44,0,1,0,13,14.4,1.44,1.44,0,0,0,14.4,15.84Z"/><path class="cls-3" d="M7.2,23A1.44,1.44,0,1,0,5.76,21.6,1.44,1.44,0,0,0,7.2,23Z"/><path class="cls-3" d="M21.6,23a1.44,1.44,0,1,0-1.44-1.44A1.44,1.44,0,0,0,21.6,23Z"/><path class="cls-3" d="M7.2,8.64A1.44,1.44,0,1,0,5.76,7.2,1.44,1.44,0,0,0,7.2,8.64Z"/><path class="cls-3" d="M21.6,8.64A1.44,1.44,0,1,0,20.16,7.2,1.44,1.44,0,0,0,21.6,8.64Z"/><path class="cls-3" d="M0,30.24A1.44,1.44,0,0,0,1.44,28.8,1.45,1.45,0,0,0,0,27.36,1.44,1.44,0,0,0-1.44,28.8,1.43,1.43,0,0,0,0,30.24Z"/><path class="cls-3" d="M0,15.84A1.44,1.44,0,0,0,1.44,14.4,1.45,1.45,0,0,0,0,13,1.44,1.44,0,0,0-1.44,14.4,1.43,1.43,0,0,0,0,15.84Z"/><path class="cls-3" d="M28.8,1.44A1.45,1.45,0,0,0,30.24,0,1.44,1.44,0,0,0,28.8-1.44,1.43,1.43,0,0,0,27.36,0,1.44,1.44,0,0,0,28.8,1.44Z"/><path class="cls-3" d="M14.4,1.44A1.45,1.45,0,0,0,15.84,0,1.44,1.44,0,0,0,14.4-1.44,1.43,1.43,0,0,0,13,0,1.44,1.44,0,0,0,14.4,1.44Z"/><path class="cls-3" d="M0,1.44A1.45,1.45,0,0,0,1.44,0,1.44,1.44,0,0,0,0-1.44,1.43,1.43,0,0,0-1.44,0,1.44,1.44,0,0,0,0,1.44Z"/></pattern><pattern id="_10_lpp_20_2" data-name="10 lpp 20% 2" width="72" height="72" patternTransform="matrix(1.46, 0, 0, -1.46, 127.43, -181.04)" patternUnits="userSpaceOnUse" viewBox="0 0 72 72"><rect class="cls-1" width="72" height="72"/><line class="cls-2" x1="71.75" y1="68.4" x2="144.25" y2="68.4"/><line class="cls-2" x1="71.75" y1="54" x2="144.25" y2="54"/><line class="cls-2" x1="71.75" y1="39.6" x2="144.25" y2="39.6"/><line class="cls-2" x1="71.75" y1="25.2" x2="144.25" y2="25.2"/><line class="cls-2" x1="71.75" y1="10.8" x2="144.25" y2="10.8"/><line class="cls-2" x1="71.75" y1="61.2" x2="144.25" y2="61.2"/><line class="cls-2" x1="71.75" y1="46.8" x2="144.25" y2="46.8"/><line class="cls-2" x1="71.75" y1="32.4" x2="144.25" y2="32.4"/><line class="cls-2" x1="71.75" y1="18" x2="144.25" y2="18"/><line class="cls-2" x1="71.75" y1="3.6" x2="144.25" y2="3.6"/><line class="cls-2" x1="-0.25" y1="68.4" x2="72.25" y2="68.4"/><line class="cls-2" x1="-0.25" y1="54" x2="72.25" y2="54"/><line class="cls-2" x1="-0.25" y1="39.6" x2="72.25" y2="39.6"/><line class="cls-2" x1="-0.25" y1="25.2" x2="72.25" y2="25.2"/><line class="cls-2" x1="-0.25" y1="10.8" x2="72.25" y2="10.8"/><line class="cls-2" x1="-0.25" y1="61.2" x2="72.25" y2="61.2"/><line class="cls-2" x1="-0.25" y1="46.8" x2="72.25" y2="46.8"/><line class="cls-2" x1="-0.25" y1="32.4" x2="72.25" y2="32.4"/><line class="cls-2" x1="-0.25" y1="18" x2="72.25" y2="18"/><line class="cls-2" x1="-0.25" y1="3.6" x2="72.25" y2="3.6"/><line class="cls-2" x1="-72.25" y1="68.4" x2="0.25" y2="68.4"/><line class="cls-2" x1="-72.25" y1="54" x2="0.25" y2="54"/><line class="cls-2" x1="-72.25" y1="39.6" x2="0.25" y2="39.6"/><line class="cls-2" x1="-72.25" y1="25.2" x2="0.25" y2="25.2"/><line class="cls-2" x1="-72.25" y1="10.8" x2="0.25" y2="10.8"/><line class="cls-2" x1="-72.25" y1="61.2" x2="0.25" y2="61.2"/><line class="cls-2" x1="-72.25" y1="46.8" x2="0.25" y2="46.8"/><line class="cls-2" x1="-72.25" y1="32.4" x2="0.25" y2="32.4"/><line class="cls-2" x1="-72.25" y1="18" x2="0.25" y2="18"/><line class="cls-2" x1="-72.25" y1="3.6" x2="0.25" y2="3.6"/></pattern></defs><title>Asset 15</title><g id="Layer_2" data-name="Layer 2"><g id="Layer_1-2" data-name="Layer 1"><g class="cls-4"><circle class="cls-5" cx="143.62" cy="390.08" r="143.17"/><circle class="cls-6" cx="143.62" cy="390.08" r="132.83"/><circle class="cls-7" cx="143.62" cy="390.08" r="122.48"/><circle class="cls-8" cx="143.62" cy="390.08" r="112.14"/><circle class="cls-9" cx="143.62" cy="390.08" r="101.79"/><circle class="cls-10" cx="143.62" cy="390.08" r="91.45"/><circle class="cls-11" cx="143.62" cy="390.08" r="81.1"/><circle class="cls-12" cx="143.62" cy="390.08" r="70.76"/><circle class="cls-13" cx="143.62" cy="390.08" r="60.41" transform="translate(-0.96 0.36) rotate(-0.14)"/><circle class="cls-14" cx="143.62" cy="390.08" r="50.07" transform="translate(-246.69 533.07) rotate(-89.91)"/><circle class="cls-15" cx="143.62" cy="390.08" r="39.72" transform="translate(-247.29 531.41) rotate(-89.66)"/><circle class="cls-16" cx="143.62" cy="390.08" r="29.38" transform="translate(-247.92 529.66) rotate(-89.41)"/><circle class="cls-17" cx="143.62" cy="390.08" r="19.03" transform="translate(-248.58 527.81) rotate(-89.14)"/><circle class="cls-18" cx="143.62" cy="390.08" r="8.69" transform="translate(-249.25 525.87) rotate(-88.85)"/></g><path class="cls-3" d="M0,389.67v-.11A143.17,143.17,0,0,1,143.17,246.39V389.67Z"/><circle class="cls-19" cx="134.28" cy="81.62" r="81.62" transform="translate(-11.45 22.84) rotate(-9.32)"/><path class="cls-20" d="M143.41,102.25v.11A143.18,143.18,0,0,1,.24,245.54V102.25Z"/></g></g></svg>