<svg xmlns="http://www.w3.org/2000/svg" xmlns:xlink="http://www.w3.org/1999/xlink" viewBox="0 0 627.93 408.52"><defs><style>.cls-1,.cls-4{fill:none;}.cls-2{fill:#434343;}.cls-3{clip-path:url(#clip-path);}.cls-4{stroke:#434343;stroke-miterlimit:10;stroke-width:2px;}.cls-5{fill:url(#_10_ppp_20_2);}</style><clipPath id="clip-path"><circle class="cls-1" cx="304.89" cy="180.67" r="147"/></clipPath><pattern id="_10_ppp_20_2" data-name="10 ppp 20% 2" width="28.8" height="28.8" patternUnits="userSpaceOnUse" viewBox="0 0 28.8 28.8"><rect class="cls-1" width="28.8" height="28.8"/><path class="cls-2" d="M28.8,30.24a1.44,1.44,0,1,0-1.44-1.44A1.44,1.44,0,0,0,28.8,30.24Z"/><path class="cls-2" d="M14.4,30.24A1.44,1.44,0,1,0,13,28.8,1.44,1.44,0,0,0,14.4,30.24Z"/><path class="cls-2" d="M28.8,15.84a1.44,1.44,0,1,0-1.44-1.44A1.44,1.44,0,0,0,28.8,15.84Z"/><path class="cls-2" d="M14.4,15.84A1.44,1.44,0,1,0,13,14.4,1.44,1.44,0,0,0,14.4,15.84Z"/><path class="cls-2" d="M7.2,23A1.44,1.44,0,1,0,5.76,21.6,1.44,1.44,0,0,0,7.2,23Z"/><path class="cls-2" d="M21.6,23a1.44,1.44,0,1,0-1.44-1.44A1.44,1.44,0,0,0,21.6,23Z"/><path class="cls-2" d="M7.2,8.64A1.44,1.44,0,1,0,5.76,7.2,1.44,1.44,0,0,0,7.2,8.64Z"/><path class="cls-2" d="M21.6,8.64A1.44,1.44,0,1,0,20.16,7.2,1.44,1.44,0,0,0,21.6,8.64Z"/><path class="cls-2" d="M0,30.24A1.44,1.44,0,0,0,1.44,28.8,1.45,1.45,0,0,0,0,27.36,1.44,1.44,0,0,0-1.44,28.8,1.43,1.43,0,0,0,0,30.24Z"/><path class="cls-2" d="M0,15.84A1.44,1.44,0,0,0,1.44,14.4,1.45,1.45,0,0,0,0,13,1.44,1.44,0,0,0-1.44,14.4,1.43,1.43,0,0,0,0,15.84Z"/><path class="cls-2" d="M28.8,1.44A1.45,1.45,0,0,0,30.24,0,1.44,1.44,0,0,0,28.8-1.44,1.43,1.43,0,0,0,27.36,0,1.44,1.44,0,0,0,28.8,1.44Z"/><path class="cls-2" d="M14.4,1.44A1.45,1.45,0,0,0,15.84,0,1.44,1.44,0,0,0,14.4-1.44,1.43,1.43,0,0,0,13,0,1.44,1.44,0,0,0,14.4,1.44Z"/><path class="cls-2" d="M0,1.44A1.45,1.45,0,0,0,1.44,0,1.44,1.44,0,0,0,0-1.44,1.43,1.43,0,0,0-1.44,0,1.44,1.44,0,0,0,0,1.44Z"/></pattern></defs><title>Asset 10</title><g id="Layer_2" data-name="Layer 2"><g id="Layer_1-2" data-name="Layer 1"><g class="cls-3"><line class="cls-4" x1="58.07" y1="407.52" x2="627.93" y2="407.52"/><line class="cls-4" x1="56.26" y1="394.81" x2="626.11" y2="394.81"/><line class="cls-4" x1="54.44" y1="382.11" x2="624.3" y2="382.11"/><line class="cls-4" x1="52.63" y1="369.41" x2="622.48" y2="369.41"/><line class="cls-4" x1="50.81" y1="356.7" x2="620.67" y2="356.7"/><line class="cls-4" x1="49" y1="344" x2="618.85" y2="344"/><line class="cls-4" x1="47.19" y1="331.3" x2="617.04" y2="331.3"/><line class="cls-4" x1="45.37" y1="318.59" x2="615.22" y2="318.59"/><line class="cls-4" x1="43.56" y1="305.89" x2="613.41" y2="305.89"/><line class="cls-4" x1="41.74" y1="293.19" x2="611.59" y2="293.19"/><line class="cls-4" x1="39.93" y1="280.48" x2="609.78" y2="280.48"/><line class="cls-4" x1="38.11" y1="267.78" x2="607.96" y2="267.78"/><line class="cls-4" x1="36.3" y1="255.07" x2="606.15" y2="255.07"/><line class="cls-4" x1="34.48" y1="242.37" x2="604.33" y2="242.37"/><line class="cls-4" x1="32.67" y1="229.67" x2="602.52" y2="229.67"/><line class="cls-4" x1="30.85" y1="216.96" x2="600.7" y2="216.96"/><line class="cls-4" x1="29.04" y1="204.26" x2="598.89" y2="204.26"/><line class="cls-4" x1="27.22" y1="191.56" x2="597.07" y2="191.56"/><line class="cls-4" x1="25.41" y1="178.85" x2="595.26" y2="178.85"/><line class="cls-4" x1="23.59" y1="166.15" x2="593.44" y2="166.15"/><line class="cls-4" x1="21.78" y1="153.44" x2="591.63" y2="153.44"/><line class="cls-4" x1="19.96" y1="140.74" x2="589.81" y2="140.74"/><line class="cls-4" x1="18.15" y1="128.04" x2="588" y2="128.04"/><line class="cls-4" x1="16.33" y1="115.33" x2="586.19" y2="115.33"/><line class="cls-4" x1="14.52" y1="102.63" x2="584.37" y2="102.63"/><line class="cls-4" x1="12.7" y1="89.93" x2="582.56" y2="89.93"/><line class="cls-4" x1="10.89" y1="77.22" x2="580.74" y2="77.22"/><line class="cls-4" x1="9.07" y1="64.52" x2="578.93" y2="64.52"/><line class="cls-4" x1="7.26" y1="51.81" x2="577.11" y2="51.81"/><line class="cls-4" x1="5.44" y1="39.11" x2="575.3" y2="39.11"/><line class="cls-4" x1="3.63" y1="26.41" x2="573.48" y2="26.41"/><line class="cls-4" x1="1.81" y1="13.7" x2="571.67" y2="13.7"/><line class="cls-4" y1="1" x2="569.85" y2="1"/></g><circle class="cls-5" cx="111.26" cy="170.8" r="92.72"/></g></g></svg>