<svg xmlns="http://www.w3.org/2000/svg" xmlns:xlink="http://www.w3.org/1999/xlink" viewBox="0 0 419.09 419.32"><defs><style>.cls-1,.cls-10,.cls-11,.cls-12,.cls-13,.cls-14,.cls-15,.cls-16,.cls-17,.cls-4,.cls-5,.cls-6,.cls-7,.cls-8,.cls-9{fill:none;}.cls-2{fill:#434343;}.cls-3{clip-path:url(#clip-path);}.cls-10,.cls-11,.cls-12,.cls-13,.cls-14,.cls-15,.cls-16,.cls-17,.cls-4,.cls-5,.cls-6,.cls-7,.cls-8,.cls-9{stroke:#434343;stroke-miterlimit:10;}.cls-4{stroke-width:0.7px;}.cls-5{stroke-width:0.69px;}.cls-6{stroke-width:0.67px;}.cls-7{stroke-width:0.66px;}.cls-8{stroke-width:0.64px;}.cls-9{stroke-width:0.62px;}.cls-10{stroke-width:0.61px;}.cls-11{stroke-width:0.59px;}.cls-12{stroke-width:0.58px;}.cls-13{stroke-width:0.56px;}.cls-14{stroke-width:0.55px;}.cls-15{stroke-width:0.53px;}.cls-16{stroke-width:0.51px;}.cls-17{stroke-width:0.5px;}</style><clipPath id="clip-path"><rect class="cls-1" x="209.53" y="209.83" width="212.89" height="215.1"/></clipPath></defs><title>Asset 12</title><g id="Layer_2" data-name="Layer 2"><g id="Layer_1-2" data-name="Layer 1"><path class="cls-2" d="M209.76,0h.16C325.44,0,419.09,93.65,419.09,209.17H209.76Z"/><g class="cls-3"><circle class="cls-4" cx="209.52" cy="209.8" r="209.17"/><circle class="cls-5" cx="209.52" cy="209.8" r="194.06"/><circle class="cls-6" cx="209.52" cy="209.8" r="178.94"/><circle class="cls-7" cx="209.52" cy="209.8" r="163.83"/><circle class="cls-8" cx="209.52" cy="209.8" r="148.71"/><circle class="cls-9" cx="209.52" cy="209.8" r="133.6"/><circle class="cls-10" cx="209.52" cy="209.8" r="118.49"/><circle class="cls-11" cx="209.52" cy="209.8" r="103.37"/><circle class="cls-12" cx="209.52" cy="209.8" r="88.26" transform="translate(-5.55 5.69) rotate(-1.54)"/><circle class="cls-13" cx="209.52" cy="209.8" r="73.14" transform="translate(-3.93 4) rotate(-1.08)"/><circle class="cls-14" cx="209.52" cy="209.8" r="58.03" transform="translate(-2.64 2.67) rotate(-0.73)"/><circle class="cls-15" cx="209.52" cy="209.8" r="42.92" transform="translate(-1.59 1.6) rotate(-0.44)"/><circle class="cls-16" cx="209.52" cy="209.8" r="27.8" transform="matrix(1, 0, 0, 1, -0.73, 0.73)"/><path class="cls-17" d="M222.21,209.8a12.69,12.69,0,1,0-12.69,12.69A12.69,12.69,0,0,0,222.21,209.8Z"/></g></g></g></svg>